# xmcd CD database file
#
# Track frame offsets:
#	150
#	17030
#	65193
#	92645
#	126944
#	147487
#	165239
#	194700
#	236783
#
# Disc length: 4440 seconds
#
# Revision: 0
# Processed by: cddbd v1.5.1PL0 Copyright (c) Steve Scherf et al.
# Submitted via: CDex 1.50
#
DISCID=84115609
DTITLE=John Coltrane - That's Jazz - John Coltrane Collection
DYEAR=2003
DGENRE=Jazz
TTITLE0=Just For The Love
TTITLE1=Blue Train
TTITLE2=Oleo
TTITLE3=One And Four
TTITLE4=Exotica
TTITLE5=Like Sonny
TTITLE6=Nita (PAUL CHAMBERS SEXTET)
TTITLE7=Speak Low (SONNY CLARK)
TTITLE8=Data Track
EXTD=YEAR: 2003
EXTT0=
EXTT1=
EXTT2=
EXTT3=
EXTT4=
EXTT5=
EXTT6=
EXTT7=
EXTT8=
PLAYORDER=
